<svg width="303" height="237" xmlns="http://www.w3.org/2000/svg" xmlns:xlink="http://www.w3.org/1999/xlink" xmlns:undefined="http://www.inkscape.org/namespaces/inkscape">
 <defs>
  <linearGradient id="imagebot_49">
   <stop stop-color="#000000" stop-opacity="0.675" id="imagebot_64" offset="0"/>
   <stop stop-color="#000000" stop-opacity="0" id="imagebot_63" offset="1"/>
  </linearGradient>
  <linearGradient id="imagebot_50">
   <stop stop-color="#ffffff" stop-opacity="0.8" offset="0" id="imagebot_62"/>
   <stop stop-color="#ffffff" stop-opacity="0" offset="1" id="imagebot_61"/>
  </linearGradient>
  <linearGradient id="imagebot_51">
   <stop stop-color="#698db2" id="imagebot_60" offset="0"/>
   <stop stop-color="#698db2" stop-opacity="0" id="imagebot_59" offset="1"/>
  </linearGradient>
  <linearGradient id="imagebot_43">
   <stop stop-color="#ffffff" id="imagebot_53" offset="0"/>
   <stop stop-color="#ffffff" stop-opacity="0" id="imagebot_52" offset="1"/>
  </linearGradient>
  <linearGradient y2="1.10741" x2="0.53846" y1="-0.09259" x1="0.07692" id="imagebot_10" xlink:href="#imagebot_51"/>
  <linearGradient y2="1.05686" x2="0.07843" y1="0.36667" x1="0.17367" id="imagebot_8" xlink:href="#imagebot_51"/>
  <radialGradient gradientUnits="userSpaceOnUse" gradientTransform="matrix(1,0,0,2.0409139,0,-281.57501)" r="19.62767" fy="269.76462" fx="254.97543" cy="269.76462" cx="254.97543" id="imagebot_6" xlink:href="#imagebot_50"/>
  <linearGradient y2="0.41926" x2="1.38408" y1="0.36274" x1="-0.23045" id="imagebot_4" xlink:href="#imagebot_43"/>
  <linearGradient y2="-0.06509" x2="0.744" y1="0.9001" x1="0.36833" id="imagebot_40" xlink:href="#imagebot_49"/>
  <filter color-interpolation-filters="sRGB" height="1.13387" y="-0.06693" width="1.07483" x="-0.03742" id="imagebot_41">
   <feGaussianBlur id="imagebot_48" stdDeviation="2.23048" />
  </filter>
  <radialGradient r="56.45768" fy="-46.05546" fx="174.71281" cy="-46.05546" cx="174.71281" gradientTransform="matrix(1.8061821,0.12088997,-0.10127791,1.513164,-139.05763,35.660033)" gradientUnits="userSpaceOnUse" id="imagebot_15" xlink:href="#imagebot_43"/>
  <linearGradient y2="0.77541" x2="0.87707" y1="0.1198" x1="-1.19387" id="imagebot_13" xlink:href="#imagebot_43"/>
  <linearGradient y2="0.35493" x2="0.40195" y1="1.91146" x1="0.77905" id="imagebot_22" xlink:href="#imagebot_43"/>
  <linearGradient y2="0.4427" x2="-0.20918" y1="0.34571" x1="3.58912" id="imagebot_20" xlink:href="#imagebot_43"/>
  <linearGradient y2="0.61688" x2="0.88586" y1="-0.05279" x1="0.12957" id="imagebot_34" xlink:href="#imagebot_43"/>
  <linearGradient y2="0.55881" x2="0.62221" y1="-0.33434" x1="0.24193" id="imagebot_30" xlink:href="#imagebot_43"/>
 </defs>
 <title/>
 <metadata id="imagebot_42">image/svg+xmlPatient2015-04-02Christoph Brill</metadata>
 <g display="none">
  <title>Layer 1</title>
  <path fill="url(#imagebot_40)" fill-rule="evenodd" stroke-width="1px" filter="url(#imagebot_41)" id="imagebot_39" d="M 230.36469188964844 223.07522413452148 C 250.62832188964842 217.43865413452147 271.12022188964846 209.53124413452147 287.54386188964844 196.3916141345215 C 294.4402818896484 190.8741741345215 305.7118918896484 184.0359541345215 303.74462188964844 175.4259241345215 C 299.1562618896484 155.3443441345215 269.04367188964846 148.84097413452147 248.47143188964844 147.78932413452148 C 138.74338188964845 142.1800441345215 131.48034188964843 250.5810941345215 230.36469188964844 223.07522413452148 z"/>
 </g>
 <g display="inline">
  <title>Layer 2</title>
  <path fill="#7f3f00" fill-rule="evenodd" stroke="#cd7c4b" stroke-width="1.02411" stroke-miterlimit="4" d="M 85.40471188964844 92.41614413452149 C 95.12879188964843 98.92192413452149 88.20039188964844 113.33387413452148 104.26773188964845 124.39126413452149 C 119.14178188964843 134.6274641345215 88.44552188964843 162.7431641345215 72.98271188964844 170.62867413452148 C 6.008041889648439 199.03916413452149 61.34728188964844 84.60956413452148 85.40471188964844 92.41614413452149 z" id="imagebot_37"/>
 </g>
 <g display="inline" id="imagebot_27">
  <path transform="translate(-51.2897 -10.5296) matrix(0.682741 0 0 0.682741 1.43262 -0.107562)" fill="#aaffd4" fill-rule="evenodd" stroke="#81acd6" stroke-width="1.5" stroke-linejoin="round" stroke-miterlimit="4" stroke-opacity="0.94902" id="imagebot_35" d="M74.12495,307.27678C73.84442,313.80226 111.4802,339.2088 143.19589,350.06708C180.17882,362.72867 228.94037,366.49547 270.55598,353.77332C279.155,351.14455 309.69279,337.28297 310.65082,333.89437C315.61475,316.33663 310.8547,251.50485 292.45652,235.51039C276.74053,221.84769 236.20442,201.80578 220.01626,193.73089C216.2398,222.9787 205.46456,235.50719 190.36629,250.6723C177.19025,263.90666 153.68342,267.24048 141.84817,252.35696C142.30668,242.05295 143.42481,217.67542 143.53282,201.48031C125.29749,208.39816 93.94668,229.50205 89.96073,236.18425C79.83695,253.15612 74.96807,287.66501 74.12495,307.27678z"/>
  <path transform="translate(-51.2897 -10.5296) matrix(0.682741 0 0 0.682741 1.43262 -0.107562)" fill="url(#imagebot_34)" fill-rule="evenodd" stroke-width="1px" id="imagebot_33" d="M95.2986,234.67281C98.00156,251.94709 99.81764,268.77794 101.25476,285.41931L138.89771,268.74206L140.80368,206.08323C126.78376,212.28381 114.85509,217.3991 95.2986,234.67281z"/>
  <path transform="translate(-51.2897 -10.5296) matrix(0.682741 0 0 0.682741 1.43262 -0.107562)" fill="#d6d6d6" fill-rule="evenodd" stroke="#949799" stroke-width="1px" stroke-linejoin="round" id="imagebot_32" d="M89.16771,320.91404L90.29763,309.6353C83.90279,305.05239 79.32426,299.98512 75.29571,294.7712L74.56229,307.73283C78.8829,312.35743 81.27048,315.72054 89.16771,320.91404z"/>
  <path transform="translate(-51.2897 -10.5296) matrix(0.682741 0 0 0.682741 1.43262 -0.107562)" fill="#d6d6d6" fill-rule="evenodd" stroke="#949799" stroke-width="1px" stroke-linejoin="round" d="M310.26046,334.13672C311.00831,330.52395 311.42684,326.25252 311.86688,322.02412C294.79907,331.33007 271.47224,345.80394 232.18104,348.55534L231.62629,360.02794C273.39984,357.4857 298.52692,340.46504 310.26046,334.13672z" id="imagebot_31"/>
  <path transform="translate(-51.2897 -10.5296) matrix(0.682741 0 0 0.682741 1.43262 -0.107562)" fill="url(#imagebot_30)" fill-rule="evenodd" stroke-width="1px" stroke-linejoin="round" id="imagebot_29" d="M157.36182,294.23444C148.26933,291.16749 139.80917,280.86634 138.77859,268.74206C138.42804,264.61807 139.36395,260.76123 141.75667,263.73888C145.94618,268.95255 152.57695,272.50151 159.14867,273.74524C177.88216,277.29065 193.57301,264.78945 206.71126,251.49211C219.71665,238.32924 228.84537,215.12603 231.5756,201.55654C241.37637,207.23356 247.90941,211.07567 257.78272,217.16169C222.40535,278.21708 189.85344,305.19407 157.36182,294.23444z"/>
  <path transform="translate(-51.2897 -10.5296) matrix(0.682741 0 0 0.682741 1.43262 -0.107562)" fill="#ededee" fill-rule="evenodd" stroke="#b7b7b7" stroke-width="1px" stroke-linejoin="round" id="imagebot_28" d="M142.23316,252.30305C142.00412,255.68319 141.91291,258.82634 141.51842,261.35642C146.46064,266.8763 154.71382,271.63675 162.09433,272.28685C171.36396,273.10335 179.8433,270.69507 187.5,265.40661C215.41391,246.12655 222.53264,227.22214 230.14612,200.12706C226.97087,198.51434 223.34375,196.75562 220.37802,194.88564C215.19793,223.83033 202.7429,241.82774 184.4028,254.92376C177.48711,259.86201 169.52414,263.03387 161.04267,262.50677C154.37518,262.09241 148.91126,258.03588 142.23316,252.30305z"/>
  <title>imagebot_27</title>
 </g>
 <g display="inline" id="imagebot_18">
  <path fill="#7f3f00" fill-rule="evenodd" stroke="#cd7c4b" stroke-width="1.5" stroke-miterlimit="4" id="imagebot_25" d="M 25.134922515661117 32.606559669626954 C 13.439209608929154 49.57307986252427 17.04235405302346 81.08071062744618 19.5582200113833 94.9070802678901 C 22.20763691076398 109.46741682273328 29.594674616118667 128.68735738466265 43.902663319059016 138.31666630068898 C 52.100988342016336 143.83415468955994 64.90797124855399 138.61735903339388 73.67269809488893 134.05281303723933 C 86.55995084517596 127.34130645546557 91.95481214690028 118.22848417802035 98.97675417355299 108.51872107821048 C 106.79398689929127 97.70924678147554 115.89639737851263 86.1439442077756 117.14967065127433 72.86300941867947 C 118.56768929527641 57.83627892267704 113.70691569168807 41.34441383543133 104.4976426119423 29.386043689702753 C 96.9634264578587 19.60274939850211 85.08426790753543 10.930308635178207 72.75255457342982 10.292983690522313 C 55.24709922223984 9.388270112660528 35.08353568043053 18.17448964149296 25.134922515661117 32.606559669626954 z"/>
  <path transform="translate(-51.2897 -10.5296) matrix(0.682741 0 0 0.682741 1.43262 -0.107562)" fill="url(#imagebot_22)" fill-rule="evenodd" stroke-width="1px" id="imagebot_21" d="M140.56544,213.23062C126.34564,213.63859 154.44947,223.33035 179.87611,208.70394C196.02523,199.41432 202.54151,185.49214 217.28081,166.05781C227.20819,152.96817 196.3593,196.86238 175.11118,207.03621C162.73266,212.96318 148.07863,213.01506 140.56544,213.23062z"/>
  <path transform="translate(-51.2897 -10.5296) matrix(0.682741 0 0 0.682741 1.43262 -0.107562)" fill="url(#imagebot_20)" fill-rule="evenodd" stroke-width="1px" d="M215.53268,124.95458C219.65751,121.24439 224.13471,120.78176 225.69879,121.77562C241.42317,131.76738 215.51338,167.80324 222.16632,160.49844C233.22836,148.35254 244.06231,114.88948 222.95545,117.74938C218.39693,118.36704 214.18779,126.16428 215.53268,124.95458z" id="imagebot_19"/>
  <title>imagebot_18</title>
 </g>
 <g display="inline" id="imagebot_11">
  <path transform="translate(-51.2897 -10.5296) matrix(0.682741 0 0 0.682741 1.43262 -0.107562)" fill="#000000" fill-rule="evenodd" stroke="#a36502" stroke-width="1.5" stroke-miterlimit="4" stroke-opacity="0.95686" id="imagebot_16" d="M122.22046,65.0413C121.67277,73.12906 120.47325,93.49337 135.08577,91.96315C162.78974,89.062 204.55818,93.06956 206.54976,128.63995C206.62606,130.00283 207.68526,131.69569 208.70394,130.32084C235.26545,94.4724 252.87271,138.11531 220.13977,165.58132C218.28253,167.13972 221.94328,173.13372 223.95172,171.77573C244.91575,157.60113 253.22854,133.86943 255.87675,111.26112C258.86385,85.75956 254.01153,55.80667 235.86404,37.64295C218.00231,19.76524 188.23938,14.22053 163.19886,17.63024C142.46784,20.45314 120.74341,31.84592 108.87865,49.07878C100.44665,61.32576 92.86071,84.462 96.72808,91.72491C98.2211,94.52879 103.49467,93.29184 106.25794,91.72491C115.27382,86.61237 116.63211,71.46705 122.22046,65.0413z"/>
  <path transform="translate(-51.2897 -10.5296) matrix(0.682741 0 0 0.682741 1.43262 -0.107562)" fill="url(#imagebot_15)" fill-rule="evenodd" stroke-width="1px" id="imagebot_14" d="M208.24056,26.03771C220.34017,25.25773 189.70588,14.97246 158.43953,21.73936C123.62557,29.27406 100.4175,52.5527 98.04705,83.5543C97.79815,86.80954 100.10103,88.85404 103.23357,87.93441C110.48979,85.80419 116.09432,62.3705 125.53937,58.77787C126.32842,68.4697 123.2957,76.74354 130.37554,81.76395C136.31,85.97215 149.357,86.6172 150.98616,78.03726C152.64567,69.29753 172.86631,28.31806 208.24056,26.03771z"/>
  <path transform="translate(-51.2897 -10.5296) matrix(0.682741 0 0 0.682741 1.43262 -0.107562)" fill="url(#imagebot_13)" fill-rule="evenodd" stroke-width="1px" id="imagebot_12" d="M101.38236,90.02827C100.1149,89.80391 106.98959,86.51726 110.53567,79.01979C116.28148,66.87142 126.22834,54.72683 125.64261,56.6399C123.91681,62.27662 123.41572,80.7818 130.83119,83.83387C143.42092,89.01555 159.4512,82.38663 176.39118,89.2677C184.23499,92.45388 199.06269,105.04984 193.84799,100.73945C186.10123,94.63843 173.97891,90.97593 161.22122,90.84395C150.57872,90.73386 135.95492,91.18514 129.00202,88.66858C121.03265,85.7841 123.29836,66.32857 123.52731,60.57447C123.55691,59.83045 119.07478,66.07569 116.76398,72.19107C112.30655,83.98738 108.01296,91.20204 101.38236,90.02827z"/>
  <title>imagebot_11</title>
 </g>
 <g display="inline" id="imagebot_2">
  <path transform="translate(-51.2897 -10.5296) matrix(0.682741 0 0 0.682741 -0.0902888 -0.107562)" fill="url(#imagebot_10)" fill-rule="evenodd" stroke-width="1px" d="M93.16154,235.67885C94.18547,252.9411 93.30688,271.66694 91.98228,302.55974L100.7425,303.90747C99.1785,272.0271 96.24599,252.76221 93.16154,235.67885z" id="imagebot_9"/>
  <path transform="translate(-51.2897 -10.5296) matrix(0.682741 0 0 0.682741 -0.0902888 -0.107562)" fill="url(#imagebot_8)" fill-rule="evenodd" stroke-width="1px" id="imagebot_7" d="M282.51701,227.92943C263.61807,238.17178 247.52125,258.83523 238.08541,280.96761C226.51118,308.11573 223.01165,337.14017 222.37475,355.45798L231.13497,356.80571C232.74041,336.32593 235.92692,309.8718 245.94537,283.7506C253.50026,264.05265 266.28796,239.15311 282.51701,227.92943z"/>
  <path transform="translate(-51.2897 -10.5296) matrix(0.682741 0 0 0.682741 -0.0902888 -0.107562)" fill="url(#imagebot_6)" fill-rule="evenodd" stroke-width="1px" d="M246.29688,308.79297C246.99524,296.6631 252.28184,279.73739 257.41562,267.8558C262.93225,255.08815 266.8248,248.38872 277.12611,233.82573C282.30828,226.49969 274.68247,234.15944 266.43251,245.46864C261.67725,251.98724 256.71462,260.2808 253.87784,266.17114C247.1858,280.06659 241.78476,296.62706 240.56905,308.45604C240.37352,310.3586 246.18695,310.70239 246.29688,308.79297z" id="imagebot_5"/>
  <path transform="translate(-51.2897 -10.5296) matrix(0.682741 0 0 0.682741 -0.0902888 -0.107562)" fill="url(#imagebot_4)" fill-rule="evenodd" stroke-width="1px" d="M249.92058,220.61626C267.9304,232.65149 271.64374,242.11649 277.31893,255.87675C287.53822,280.65478 287.53496,301.80794 287.08704,335.68933C291.93725,338.29312 299.34099,333.19933 301.85832,328.30368C306.07266,297.63076 297.6493,264.69186 290.89898,250.87357C283.18203,235.07653 235.30292,210.84787 249.92058,220.61626z" id="imagebot_3"/>
  <title>imagebot_2</title>
 </g>
</svg>